<svg viewBox="0 0 128 128" xmlns="http://www.w3.org/2000/svg"><path fill="#2496ED" d="M124.8 52.1c-4.3-2.5-10-2.8-14.8-1.4-.6-5.2-4-9.7-8-12.9l-1.6-1.3-1.4 1.6c-2.7 3.1-3.5 8.3-3.1 12.3.3 2.9 1.2 5.9 3 8.3-1.4.8-2.9 1.9-4.3 2.4-2.8 1-5.9 2-8.9 2H79V36h-9.8V21h-10v15H49V21H39v15H29V21h-10v15H9v15H0v3c0 5.6 3.3 17 19.4 17h.1c6.4-.1 26.6-.3 48.3-10.2 9.1-4.3 17.4-10.4 24.4-18.4 5.8-6.6 10.8-14.5 14.6-23.8l.4-1-.9-.4c-3.7-1.6-9.5-4.7-16.6-2.1l-1.2.5c-.9.4-1.7.9-2.5 1.4l.6-2.7-9.5 2.4 3.9 8.8c.6 1.3 1.6 3.4 2.3 5.5-1.6.1-3.2.4-4.8.8 2.6-4.5 3-10.3.8-15.1l-.6-1.2-1.2.5c-5.4 2.4-8.3 8.4-7.4 14.4l.1.5c-2.5-.3-5.3-.2-7.6.3l-.1-.5c-.8-3.7-2.6-7.1-5.3-9.7l-.9-.9-.9.9c-4.2 4.2-4.5 10.4-1.5 15.2-.6.5-1.1 1.1-1.6 1.8-2.4-3.3-5.9-5.7-10-6.5l-1.3-.3-.3 1.3c-1 5.4 1.6 10.8 6.3 13.7-.3 1.1-.4 2.2-.4 3.3H19.4C9.4 62 5 50.4 5 50.4L4.9 50H2v-4h12V31h10v15h10V31h10v15h10V31h9.8v15H74V31h10v15h9.9c.4-3.3 1.5-6.6 3.3-9.3.4 1 .9 1.9 1.5 2.7 2.4 3.6 6.5 5.8 10.8 5.9 2 0 4-.5 5.7-1.5-.4 1.9-.5 3.8-.2 5.7.7 4.7 3.5 8.9 7.5 11.3 2.9 1.7 6.3 2.5 9.8 2.2 2.8-.3 5.5-1.2 7.8-2.7l.2-.2.1-.2c.4-.5.6-1.1.6-1.7-.1-.8-.5-1.5-1.2-1.9z"/><path fill="#2496ED" d="M45 53h7v7h-7v-7zm9 0h7v7h-7v-7zm9 0h7v7h-7v-7zm9 0h7v7h-7v-7zm-27-9h7v7h-7v-7zm9 0h7v7h-7v-7zm9 0h7v7h-7v-7zm9 0h7v7h-7v-7zm-27-9h7v7h-7v-7zm9 0h7v7h-7v-7zm9 0h7v7h-7v-7z"/></svg>