<svg viewBox="0 0 128 128" xmlns="http://www.w3.org/2000/svg"><path fill="#FCC624" d="M64 4C32 4 4 32 4 64s28 60 60 60 60-28 60-60S96 4 64 4z"/><path fill="#333" d="M64 12c28.7 0 52 23.3 52 52s-23.3 52-52 52-52-23.3-52-52 23.3-52 52-52m0-8C32 4 4 32 4 64s28 60 60 60 60-28 60-60S96 4 64 4z"/><ellipse cx="48" cy="56" rx="8" ry="12" fill="#333"/><ellipse cx="80" cy="56" rx="8" ry="12" fill="#333"/><path fill="#333" d="M44 76c0-4 9-8 20-8s20 4 20 8-9 12-20 12-20-8-20-12z"/><path fill="#FCC624" d="M48 80c0-2 7-4 16-4s16 2 16 4-7 8-16 8-16-6-16-8z"/></svg>