<svg viewBox="0 0 128 128" xmlns="http://www.w3.org/2000/svg"><path fill="#00758F" d="M116.948 97.807c-6.863-.187-12.104.452-16.585 2.341-1.273.537-3.305.552-3.513 2.147.7.738.808 1.839 1.366 2.734 1.071 1.727 2.876 4.037 4.488 5.27l5.679 4.096c3.478 2.186 7.388 3.437 10.746 5.663 1.973 1.308 3.932 2.959 5.872 4.49.967.764 1.612 1.952 2.847 2.342v-.247c-.652-.79-1.024-1.922-1.562-2.929l-2.929-2.734c-2.869-3.8-6.439-7.14-10.348-9.818-3.116-2.134-10.09-5.011-11.386-8.615l-.194-.391c2.21-.244 4.805-.823 6.867-1.367 3.441-.911 6.517-.683 10.058-1.367.896-.195 1.793-.391 2.687-.588v-.98c-1.001-1.03-1.715-2.391-2.83-3.322-2.911-2.429-6.102-4.852-9.358-6.868-1.746-1.083-4.003-1.782-5.871-2.736-.621-.316-1.719-.48-2.097-1.01-.953-1.207-1.483-2.752-2.199-4.153l-4.387-9.32c-.94-2.012-1.556-4.023-2.735-5.87-5.661-8.866-11.764-14.217-21.197-19.491-2.006-1.122-4.427-1.567-6.968-2.147l-4.093-.2c-.836-.354-1.706-1.387-2.443-1.856-2.941-1.874-10.49-5.943-12.675-.586-1.38 3.385 2.064 6.689 3.318 8.413 .88 1.21 2.009 2.565 2.637 3.909.394.846.462 1.693.854 2.587.964 2.202 1.902 4.607 3.124 6.624.616.917 1.28 1.893 2.047 2.684.467.483 1.27.696 1.463 1.461-.823 1.151-1.061 2.735-1.561 4.094-2.245 6.1-1.4 13.679 1.854 18.199 1 1.39 3.357 4.374 6.575 3.226 2.816-.945 2.187-3.893 2.989-6.479.181-.58.069-1.008.397-1.369v.1l2.342 4.685c1.735 2.797 4.813 5.716 7.363 7.664 1.325 1.013 2.369 2.755 4.093 3.322v-.194h-.197c-.333-.513-.851-.754-1.267-1.17-1.019-.965-2.152-2.163-2.929-3.323-2.327-3.473-4.387-7.278-6.283-11.186-.907-1.873-1.698-3.937-2.441-5.87-.287-.75-.285-1.881-.978-2.243-.907 1.404-2.241 2.537-2.927 4.19-1.098 2.644-1.239 5.87-1.66 9.221-.242.08-.136.025-.197.099-1.982-.478-2.682-2.525-3.416-4.248-1.852-4.347-2.194-11.352-.57-16.385.419-1.305 2.318-5.414 1.561-6.673-.37-1.208-1.59-1.911-2.244-2.881-.81-1.199-1.617-2.773-2.147-4.151-1.378-3.584-2.022-7.616-3.515-11.186-.714-1.708-1.923-3.438-2.93-5.021-1.12-1.76-2.374-3.059-3.221-5.167-.301-.749-.71-1.945-.246-2.735.147-.253.457-.39.687-.58.496-.411 1.874-.636 2.538-.832 1.761-.52 3.33-.397 5.09-.882 1.563-.431 3.107-.922 4.588-1.562l.096-.194-.002.001z"/><path fill="#F29111" d="M41.052 49.077c-.85-.028-1.456.075-2.1.246v.196h.098c.409.823.999 1.539 1.463 2.343.368.736.679 1.474 1.024 2.195l.098-.099c.634-.449.929-1.163.929-2.245-.257-.271-.293-.611-.49-.931-.248-.403-.77-.63-1.022-1.01v-.695z"/></svg>